{
    "asset" : {
        "generator" : "Khronos glTF Blender I/O v1.3.48",
        "version" : "2.0"
    },
    "scene" : 0,
    "scenes" : [
        {
            "name" : "Scene",
            "nodes" : [
                0,
                1,
                2,
                3,
                4
            ]
        }
    ],
    "nodes" : [
        {
            "name" : "Light",
            "rotation" : [
                0.16907575726509094,
                0.7558803558349609,
                -0.27217137813568115,
                0.570947527885437
            ],
            "translation" : [
                4.076245307922363,
                5.903861999511719,
                -1.0054539442062378
            ]
        },
        {
            "name" : "Camera",
            "rotation" : [
                0.483536034822464,
                0.33687159419059753,
                -0.20870360732078552,
                0.7804827094078064
            ],
            "translation" : [
                7.358891487121582,
                4.958309173583984,
                6.925790786743164
            ]
        },
        {
            "mesh" : 0,
            "name" : "Plane",
            "translation" : [
                0.000993484864011407,
                -0.6069737672805786,
                0.00025804436882026494
            ]
        },
        {
            "mesh" : 1,
            "name" : "Cube",
            "scale" : [
                0.9225429892539978,
                0.013553492724895477,
                0.16631491482257843
            ],
            "translation" : [
                0,
                -0.10609264671802521,
                0.7619010210037231
            ]
        },
        {
            "mesh" : 2,
            "name" : "texturedMesh",
            "rotation" : [
                0.9334270358085632,
                -0.03674983233213425,
                -0.09828541427850723,
                0.3430792987346649
            ],
            "scale" : [
                5.349167346954346,
                5.34916877746582,
                5.349168300628662
            ],
            "translation" : [
                -0.06470249593257904,
                -1.3194656372070312,
                -0.47093531489372253
            ]
        }
    ],
    "materials" : [
        {
            "doubleSided" : true,
            "emissiveFactor" : [
                0,
                0,
                0
            ],
            "name" : "Material.005",
            "pbrMetallicRoughness" : {
                "baseColorTexture" : {
                    "index" : 0,
                    "texCoord" : 0
                },
                "metallicFactor" : 0,
                "roughnessFactor" : 0.5
            }
        },
        {
            "doubleSided" : true,
            "emissiveFactor" : [
                0,
                0,
                0
            ],
            "name" : "Material.006",
            "pbrMetallicRoughness" : {
                "baseColorTexture" : {
                    "index" : 1,
                    "texCoord" : 0
                },
                "metallicFactor" : 0,
                "roughnessFactor" : 0.5
            }
        },
        {
            "doubleSided" : true,
            "emissiveFactor" : [
                0,
                0,
                0
            ],
            "name" : "TextureAtlas_1001",
            "pbrMetallicRoughness" : {
                "baseColorTexture" : {
                    "index" : 2,
                    "texCoord" : 0
                },
                "metallicFactor" : 0,
                "roughnessFactor" : 1
            }
        },
        {
            "doubleSided" : true,
            "emissiveFactor" : [
                0,
                0,
                0
            ],
            "name" : "TextureAtlas_1002",
            "pbrMetallicRoughness" : {
                "baseColorTexture" : {
                    "index" : 3,
                    "texCoord" : 0
                },
                "metallicFactor" : 0,
                "roughnessFactor" : 1
            }
        },
        {
            "doubleSided" : true,
            "emissiveFactor" : [
                0,
                0,
                0
            ],
            "name" : "TextureAtlas_1003",
            "pbrMetallicRoughness" : {
                "baseColorTexture" : {
                    "index" : 4,
                    "texCoord" : 0
                },
                "metallicFactor" : 0,
                "roughnessFactor" : 1
            }
        },
        {
            "doubleSided" : true,
            "emissiveFactor" : [
                0,
                0,
                0
            ],
            "name" : "TextureAtlas_1004",
            "pbrMetallicRoughness" : {
                "baseColorTexture" : {
                    "index" : 5,
                    "texCoord" : 0
                },
                "metallicFactor" : 0,
                "roughnessFactor" : 1
            }
        }
    ],
    "meshes" : [
        {
            "name" : "Plane",
            "primitives" : [
                {
                    "attributes" : {
                        "POSITION" : 0,
                        "NORMAL" : 1,
                        "TEXCOORD_0" : 2
                    },
                    "indices" : 3,
                    "material" : 0
                }
            ]
        },
        {
            "name" : "Cube",
            "primitives" : [
                {
                    "attributes" : {
                        "POSITION" : 4,
                        "NORMAL" : 5,
                        "TEXCOORD_0" : 6
                    },
                    "indices" : 7,
                    "material" : 1
                }
            ]
        },
        {
            "name" : "texturedMesh",
            "primitives" : [
                {
                    "attributes" : {
                        "POSITION" : 8,
                        "NORMAL" : 9,
                        "TEXCOORD_0" : 10
                    },
                    "indices" : 11,
                    "material" : 2
                },
                {
                    "attributes" : {
                        "POSITION" : 12,
                        "NORMAL" : 13,
                        "TEXCOORD_0" : 14
                    },
                    "indices" : 15,
                    "material" : 3
                },
                {
                    "attributes" : {
                        "POSITION" : 16,
                        "NORMAL" : 17,
                        "TEXCOORD_0" : 18
                    },
                    "indices" : 19,
                    "material" : 4
                },
                {
                    "attributes" : {
                        "POSITION" : 20,
                        "NORMAL" : 21,
                        "TEXCOORD_0" : 22
                    },
                    "indices" : 23,
                    "material" : 5
                }
            ]
        }
    ],
    "textures" : [
        {
            "source" : 0
        },
        {
            "source" : 1
        },
        {
            "source" : 2
        },
        {
            "source" : 3
        },
        {
            "source" : 4
        },
        {
            "source" : 5
        }
    ],
    "images" : [
        {
            "mimeType" : "image/jpeg",
            "name" : "ki3Ew",
            "uri" : "ki3Ew.jpg"
        },
        {
            "mimeType" : "image/jpeg",
            "name" : "istockphoto-867906478-170667a",
            "uri" : "istockphoto-867906478-170667a.jpg"
        },
        {
            "mimeType" : "image/png",
            "name" : "texture_1001",
            "uri" : "texture_1001.png"
        },
        {
            "mimeType" : "image/png",
            "name" : "texture_1002",
            "uri" : "texture_1002.png"
        },
        {
            "mimeType" : "image/png",
            "name" : "texture_1003",
            "uri" : "texture_1003.png"
        },
        {
            "mimeType" : "image/png",
            "name" : "texture_1004",
            "uri" : "texture_1004.png"
        }
    ],
    "accessors" : [
        {
            "bufferView" : 0,
            "componentType" : 5126,
            "count" : 96,
            "max" : [
                1,
                0.5905206203460693,
                1
            ],
            "min" : [
                -1,
                -0.3194206655025482,
                -1
            ],
            "type" : "VEC3"
        },
        {
            "bufferView" : 1,
            "componentType" : 5126,
            "count" : 96,
            "type" : "VEC3"
        },
        {
            "bufferView" : 2,
            "componentType" : 5126,
            "count" : 96,
            "type" : "VEC2"
        },
        {
            "bufferView" : 3,
            "componentType" : 5123,
            "count" : 204,
            "type" : "SCALAR"
        },
        {
            "bufferView" : 4,
            "componentType" : 5126,
            "count" : 24,
            "max" : [
                1,
                1,
                1
            ],
            "min" : [
                -1,
                -1,
                -1
            ],
            "type" : "VEC3"
        },
        {
            "bufferView" : 5,
            "componentType" : 5126,
            "count" : 24,
            "type" : "VEC3"
        },
        {
            "bufferView" : 6,
            "componentType" : 5126,
            "count" : 24,
            "type" : "VEC2"
        },
        {
            "bufferView" : 7,
            "componentType" : 5123,
            "count" : 36,
            "type" : "SCALAR"
        },
        {
            "bufferView" : 8,
            "componentType" : 5126,
            "count" : 38322,
            "max" : [
                0.6965394020080566,
                0.19035649299621582,
                0.3085061311721802
            ],
            "min" : [
                -0.22139661014080048,
                -1.1782315969467163,
                -0.6112048625946045
            ],
            "type" : "VEC3"
        },
        {
            "bufferView" : 9,
            "componentType" : 5126,
            "count" : 38322,
            "type" : "VEC3"
        },
        {
            "bufferView" : 10,
            "componentType" : 5126,
            "count" : 38322,
            "type" : "VEC2"
        },
        {
            "bufferView" : 11,
            "componentType" : 5123,
            "count" : 38322,
            "type" : "SCALAR"
        },
        {
            "bufferView" : 12,
            "componentType" : 5126,
            "count" : 47607,
            "max" : [
                0.6826943755149841,
                0.16385245323181152,
                0.2830401062965393
            ],
            "min" : [
                -0.20473961532115936,
                -1.3179864883422852,
                -0.6103618741035461
            ],
            "type" : "VEC3"
        },
        {
            "bufferView" : 13,
            "componentType" : 5126,
            "count" : 47607,
            "type" : "VEC3"
        },
        {
            "bufferView" : 14,
            "componentType" : 5126,
            "count" : 47607,
            "type" : "VEC2"
        },
        {
            "bufferView" : 15,
            "componentType" : 5123,
            "count" : 47607,
            "type" : "SCALAR"
        },
        {
            "bufferView" : 16,
            "componentType" : 5126,
            "count" : 92631,
            "max" : [
                0.6965394020080566,
                0.18926739692687988,
                0.3142451047897339
            ],
            "min" : [
                -0.2172096222639084,
                -1.120422601699829,
                -0.6126089096069336
            ],
            "type" : "VEC3"
        },
        {
            "bufferView" : 17,
            "componentType" : 5126,
            "count" : 92631,
            "type" : "VEC3"
        },
        {
            "bufferView" : 18,
            "componentType" : 5126,
            "count" : 92631,
            "type" : "VEC2"
        },
        {
            "bufferView" : 19,
            "componentType" : 5125,
            "count" : 92631,
            "type" : "SCALAR"
        },
        {
            "bufferView" : 20,
            "componentType" : 5126,
            "count" : 144954,
            "max" : [
                0.6954624056816101,
                0.19388341903686523,
                0.3142451047897339
            ],
            "min" : [
                -0.20560860633850098,
                -1.2890615463256836,
                -0.6126089096069336
            ],
            "type" : "VEC3"
        },
        {
            "bufferView" : 21,
            "componentType" : 5126,
            "count" : 144954,
            "type" : "VEC3"
        },
        {
            "bufferView" : 22,
            "componentType" : 5126,
            "count" : 144954,
            "type" : "VEC2"
        },
        {
            "bufferView" : 23,
            "componentType" : 5125,
            "count" : 144954,
            "type" : "SCALAR"
        }
    ],
    "bufferViews" : [
        {
            "buffer" : 0,
            "byteLength" : 1152,
            "byteOffset" : 0
        },
        {
            "buffer" : 0,
            "byteLength" : 1152,
            "byteOffset" : 1152
        },
        {
            "buffer" : 0,
            "byteLength" : 768,
            "byteOffset" : 2304
        },
        {
            "buffer" : 0,
            "byteLength" : 408,
            "byteOffset" : 3072
        },
        {
            "buffer" : 0,
            "byteLength" : 288,
            "byteOffset" : 3480
        },
        {
            "buffer" : 0,
            "byteLength" : 288,
            "byteOffset" : 3768
        },
        {
            "buffer" : 0,
            "byteLength" : 192,
            "byteOffset" : 4056
        },
        {
            "buffer" : 0,
            "byteLength" : 72,
            "byteOffset" : 4248
        },
        {
            "buffer" : 0,
            "byteLength" : 459864,
            "byteOffset" : 4320
        },
        {
            "buffer" : 0,
            "byteLength" : 459864,
            "byteOffset" : 464184
        },
        {
            "buffer" : 0,
            "byteLength" : 306576,
            "byteOffset" : 924048
        },
        {
            "buffer" : 0,
            "byteLength" : 76644,
            "byteOffset" : 1230624
        },
        {
            "buffer" : 0,
            "byteLength" : 571284,
            "byteOffset" : 1307268
        },
        {
            "buffer" : 0,
            "byteLength" : 571284,
            "byteOffset" : 1878552
        },
        {
            "buffer" : 0,
            "byteLength" : 380856,
            "byteOffset" : 2449836
        },
        {
            "buffer" : 0,
            "byteLength" : 95214,
            "byteOffset" : 2830692
        },
        {
            "buffer" : 0,
            "byteLength" : 1111572,
            "byteOffset" : 2925908
        },
        {
            "buffer" : 0,
            "byteLength" : 1111572,
            "byteOffset" : 4037480
        },
        {
            "buffer" : 0,
            "byteLength" : 741048,
            "byteOffset" : 5149052
        },
        {
            "buffer" : 0,
            "byteLength" : 370524,
            "byteOffset" : 5890100
        },
        {
            "buffer" : 0,
            "byteLength" : 1739448,
            "byteOffset" : 6260624
        },
        {
            "buffer" : 0,
            "byteLength" : 1739448,
            "byteOffset" : 8000072
        },
        {
            "buffer" : 0,
            "byteLength" : 1159632,
            "byteOffset" : 9739520
        },
        {
            "buffer" : 0,
            "byteLength" : 579816,
            "byteOffset" : 10899152
        }
    ],
    "buffers" : [
        {
            "byteLength" : 11478968,
            "uri" : "space.bin"
        }
    ]
}
