{
    "asset" : {
        "generator" : "Khronos glTF Blender I/O v1.3.48",
        "version" : "2.0"
    },
    "scene" : 0,
    "scenes" : [
        {
            "name" : "Scene",
            "nodes" : [
                0,
                1,
                2,
                3,
                4,
                5,
                6,
                7,
                8,
                9,
                10,
                11,
                12
            ]
        }
    ],
    "nodes" : [
        {
            "name" : "Light",
            "rotation" : [
                0.16907575726509094,
                0.7558803558349609,
                -0.27217137813568115,
                0.570947527885437
            ],
            "translation" : [
                4.076245307922363,
                5.903861999511719,
                -1.0054539442062378
            ]
        },
        {
            "name" : "Camera",
            "rotation" : [
                0.483536034822464,
                0.33687159419059753,
                -0.20870360732078552,
                0.7804827094078064
            ],
            "translation" : [
                7.358891487121582,
                4.958309173583984,
                6.925790786743164
            ]
        },
        {
            "mesh" : 0,
            "name" : "Plane",
            "translation" : [
                0.000993484864011407,
                -0.6069737672805786,
                0.00025804436882026494
            ]
        },
        {
            "mesh" : 1,
            "name" : "Cube",
            "scale" : [
                0.9225429892539978,
                0.013553492724895477,
                0.16631491482257843
            ],
            "translation" : [
                0,
                -0.10609264671802521,
                0.7619010210037231
            ]
        },
        {
            "mesh" : 2,
            "name" : "Plane068_Material #48_0",
            "rotation" : [
                -0.0773908719420433,
                -0.7657632231712341,
                0.6222383975982666,
                0.1429571658372879
            ],
            "scale" : [
                0.02350294403731823,
                0.02350294031202793,
                0.02350294031202793
            ],
            "translation" : [
                -0.739227294921875,
                0.3597853183746338,
                -1.6053388118743896
            ]
        },
        {
            "mesh" : 3,
            "name" : "Plane051_Material #47_0",
            "rotation" : [
                0.06439904123544693,
                0.41208910942077637,
                0.8979661464691162,
                -0.1403292566537857
            ],
            "scale" : [
                0.04267842695116997,
                0.04267842695116997,
                0.04267842695116997
            ],
            "translation" : [
                -0.1672496795654297,
                0.1196434497833252,
                0.7841235399246216
            ]
        },
        {
            "mesh" : 4,
            "name" : "Plane054_Material #47_0",
            "rotation" : [
                0,
                -0.997011125087738,
                0,
                0.07725902646780014
            ],
            "scale" : [
                0.04282453656196594,
                0.04282453656196594,
                0.04282453656196594
            ],
            "translation" : [
                0.4325302839279175,
                0.12119090557098389,
                0.9098177552223206
            ]
        },
        {
            "name" : "Node_167",
            "translation" : [
                -25.523773193359375,
                4.4008636474609375,
                71.63810729980469
            ]
        },
        {
            "name" : "Node_17",
            "translation" : [
                3.952972412109375,
                18.168109893798828,
                0
            ]
        },
        {
            "name" : "Node_89",
            "translation" : [
                3.952972412109375,
                18.168109893798828,
                0
            ]
        },
        {
            "name" : "Node_92",
            "translation" : [
                3.952972412109375,
                18.168109893798828,
                0
            ]
        },
        {
            "name" : "Node_95",
            "translation" : [
                3.952972412109375,
                18.168109893798828,
                0
            ]
        },
        {
            "mesh" : 5,
            "name" : "Plane026_Material #47_0",
            "rotation" : [
                -0.5627028942108154,
                0,
                0,
                0.8266592025756836
            ],
            "scale" : [
                0.014686008915305138,
                0.014686008915305138,
                0.014686008915305138
            ],
            "translation" : [
                0.4924808740615845,
                -0.3300056755542755,
                0.411891371011734
            ]
        }
    ],
    "materials" : [
        {
            "doubleSided" : true,
            "emissiveFactor" : [
                0,
                0,
                0
            ],
            "name" : "Material.005",
            "pbrMetallicRoughness" : {
                "baseColorTexture" : {
                    "index" : 0,
                    "texCoord" : 0
                },
                "metallicFactor" : 0,
                "roughnessFactor" : 0.5
            }
        },
        {
            "doubleSided" : true,
            "emissiveFactor" : [
                0,
                0,
                0
            ],
            "name" : "Material.006",
            "pbrMetallicRoughness" : {
                "baseColorTexture" : {
                    "index" : 1,
                    "texCoord" : 0
                },
                "metallicFactor" : 0,
                "roughnessFactor" : 0.5
            }
        },
        {
            "alphaCutoff" : 0.5,
            "alphaMode" : "MASK",
            "doubleSided" : true,
            "emissiveFactor" : [
                0,
                0,
                0
            ],
            "name" : "Material_48",
            "pbrMetallicRoughness" : {
                "baseColorTexture" : {
                    "index" : 2,
                    "texCoord" : 0
                },
                "metallicFactor" : 0,
                "roughnessFactor" : 0.8929713368415833
            }
        },
        {
            "alphaMode" : "BLEND",
            "doubleSided" : true,
            "emissiveFactor" : [
                0,
                0,
                0
            ],
            "name" : "Material_47",
            "pbrMetallicRoughness" : {
                "baseColorTexture" : {
                    "index" : 3,
                    "texCoord" : 0
                },
                "metallicFactor" : 0,
                "roughnessFactor" : 0.8929713368415833
            }
        },
        {
            "alphaMode" : "BLEND",
            "doubleSided" : true,
            "emissiveFactor" : [
                0,
                0,
                0
            ],
            "name" : "Material_47.001",
            "pbrMetallicRoughness" : {
                "baseColorTexture" : {
                    "index" : 4,
                    "texCoord" : 0
                },
                "metallicFactor" : 0,
                "roughnessFactor" : 0.8929713368415833
            }
        },
        {
            "alphaCutoff" : 0.5,
            "alphaMode" : "MASK",
            "doubleSided" : true,
            "emissiveFactor" : [
                0,
                0,
                0
            ],
            "name" : "Material_47.002",
            "pbrMetallicRoughness" : {
                "baseColorTexture" : {
                    "index" : 5,
                    "texCoord" : 0
                },
                "metallicFactor" : 0,
                "roughnessFactor" : 0.8929713368415833
            }
        }
    ],
    "meshes" : [
        {
            "name" : "Plane",
            "primitives" : [
                {
                    "attributes" : {
                        "POSITION" : 0,
                        "NORMAL" : 1,
                        "TEXCOORD_0" : 2
                    },
                    "indices" : 3,
                    "material" : 0
                }
            ]
        },
        {
            "name" : "Cube",
            "primitives" : [
                {
                    "attributes" : {
                        "POSITION" : 4,
                        "NORMAL" : 5,
                        "TEXCOORD_0" : 6
                    },
                    "indices" : 7,
                    "material" : 1
                }
            ]
        },
        {
            "name" : "Plane068_Material #48_0",
            "primitives" : [
                {
                    "attributes" : {
                        "POSITION" : 8,
                        "NORMAL" : 9,
                        "TEXCOORD_0" : 10,
                        "TEXCOORD_1" : 11,
                        "TEXCOORD_2" : 12
                    },
                    "indices" : 13,
                    "material" : 2
                }
            ]
        },
        {
            "name" : "Plane051_Material #47_0",
            "primitives" : [
                {
                    "attributes" : {
                        "POSITION" : 14,
                        "NORMAL" : 15,
                        "TEXCOORD_0" : 16,
                        "TEXCOORD_1" : 17
                    },
                    "indices" : 18,
                    "material" : 3
                }
            ]
        },
        {
            "name" : "Plane054_Material #47_0",
            "primitives" : [
                {
                    "attributes" : {
                        "POSITION" : 19,
                        "NORMAL" : 20,
                        "TEXCOORD_0" : 21,
                        "TEXCOORD_1" : 22
                    },
                    "indices" : 23,
                    "material" : 4
                }
            ]
        },
        {
            "name" : "Plane026_Material #47_0",
            "primitives" : [
                {
                    "attributes" : {
                        "POSITION" : 24,
                        "NORMAL" : 25,
                        "TEXCOORD_0" : 26,
                        "TEXCOORD_1" : 27
                    },
                    "indices" : 28,
                    "material" : 5
                }
            ]
        }
    ],
    "textures" : [
        {
            "source" : 0
        },
        {
            "source" : 1
        },
        {
            "source" : 2
        },
        {
            "source" : 3
        },
        {
            "source" : 3
        },
        {
            "source" : 3
        }
    ],
    "images" : [
        {
            "mimeType" : "image/jpeg",
            "name" : "ki3Ew",
            "uri" : "ki3Ew.jpg"
        },
        {
            "mimeType" : "image/jpeg",
            "name" : "istockphoto-867906478-170667a",
            "uri" : "istockphoto-867906478-170667a.jpg"
        },
        {
            "mimeType" : "image/png",
            "name" : "Material_48_baseColor",
            "uri" : "Material_48_baseColor.png"
        },
        {
            "mimeType" : "image/png",
            "name" : "Material_47_baseColor",
            "uri" : "Material_47_baseColor.png"
        }
    ],
    "accessors" : [
        {
            "bufferView" : 0,
            "componentType" : 5126,
            "count" : 96,
            "max" : [
                1,
                0.5905206203460693,
                1
            ],
            "min" : [
                -1,
                -0.3194206655025482,
                -1
            ],
            "type" : "VEC3"
        },
        {
            "bufferView" : 1,
            "componentType" : 5126,
            "count" : 96,
            "type" : "VEC3"
        },
        {
            "bufferView" : 2,
            "componentType" : 5126,
            "count" : 96,
            "type" : "VEC2"
        },
        {
            "bufferView" : 3,
            "componentType" : 5123,
            "count" : 204,
            "type" : "SCALAR"
        },
        {
            "bufferView" : 4,
            "componentType" : 5126,
            "count" : 24,
            "max" : [
                1,
                1,
                1
            ],
            "min" : [
                -1,
                -1,
                -1
            ],
            "type" : "VEC3"
        },
        {
            "bufferView" : 5,
            "componentType" : 5126,
            "count" : 24,
            "type" : "VEC3"
        },
        {
            "bufferView" : 6,
            "componentType" : 5126,
            "count" : 24,
            "type" : "VEC2"
        },
        {
            "bufferView" : 7,
            "componentType" : 5123,
            "count" : 36,
            "type" : "SCALAR"
        },
        {
            "bufferView" : 8,
            "componentType" : 5126,
            "count" : 184,
            "max" : [
                56.794246673583984,
                104.99673461914062,
                16.863880157470703
            ],
            "min" : [
                -30.690704345703125,
                -102.40000915527344,
                -51.385257720947266
            ],
            "type" : "VEC3"
        },
        {
            "bufferView" : 9,
            "componentType" : 5126,
            "count" : 184,
            "type" : "VEC3"
        },
        {
            "bufferView" : 10,
            "componentType" : 5126,
            "count" : 184,
            "type" : "VEC2"
        },
        {
            "bufferView" : 11,
            "componentType" : 5126,
            "count" : 184,
            "type" : "VEC2"
        },
        {
            "bufferView" : 12,
            "componentType" : 5126,
            "count" : 184,
            "type" : "VEC2"
        },
        {
            "bufferView" : 13,
            "componentType" : 5123,
            "count" : 678,
            "type" : "SCALAR"
        },
        {
            "bufferView" : 14,
            "componentType" : 5126,
            "count" : 21,
            "max" : [
                6.346611022949219,
                8.113969802856445,
                16.813119888305664
            ],
            "min" : [
                -3.2377243041992188,
                -9.063970565795898,
                -16.952157974243164
            ],
            "type" : "VEC3"
        },
        {
            "bufferView" : 15,
            "componentType" : 5126,
            "count" : 21,
            "type" : "VEC3"
        },
        {
            "bufferView" : 16,
            "componentType" : 5126,
            "count" : 21,
            "type" : "VEC2"
        },
        {
            "bufferView" : 17,
            "componentType" : 5126,
            "count" : 21,
            "type" : "VEC2"
        },
        {
            "bufferView" : 18,
            "componentType" : 5123,
            "count" : 72,
            "type" : "SCALAR"
        },
        {
            "bufferView" : 19,
            "componentType" : 5126,
            "count" : 18,
            "max" : [
                8.554794311523438,
                9.05386734008789,
                17.00433921813965
            ],
            "min" : [
                -9.13458251953125,
                -13.862117767333984,
                -20.252134323120117
            ],
            "type" : "VEC3"
        },
        {
            "bufferView" : 20,
            "componentType" : 5126,
            "count" : 18,
            "type" : "VEC3"
        },
        {
            "bufferView" : 21,
            "componentType" : 5126,
            "count" : 18,
            "type" : "VEC2"
        },
        {
            "bufferView" : 22,
            "componentType" : 5126,
            "count" : 18,
            "type" : "VEC2"
        },
        {
            "bufferView" : 23,
            "componentType" : 5123,
            "count" : 60,
            "type" : "SCALAR"
        },
        {
            "bufferView" : 24,
            "componentType" : 5126,
            "count" : 782,
            "max" : [
                104.61460876464844,
                60.40040588378906,
                106.58843994140625
            ],
            "min" : [
                -100.71955871582031,
                -38.71588134765625,
                -125.83734130859375
            ],
            "type" : "VEC3"
        },
        {
            "bufferView" : 25,
            "componentType" : 5126,
            "count" : 782,
            "type" : "VEC3"
        },
        {
            "bufferView" : 26,
            "componentType" : 5126,
            "count" : 782,
            "type" : "VEC2"
        },
        {
            "bufferView" : 27,
            "componentType" : 5126,
            "count" : 782,
            "type" : "VEC2"
        },
        {
            "bufferView" : 28,
            "componentType" : 5123,
            "count" : 2712,
            "type" : "SCALAR"
        }
    ],
    "bufferViews" : [
        {
            "buffer" : 0,
            "byteLength" : 1152,
            "byteOffset" : 0
        },
        {
            "buffer" : 0,
            "byteLength" : 1152,
            "byteOffset" : 1152
        },
        {
            "buffer" : 0,
            "byteLength" : 768,
            "byteOffset" : 2304
        },
        {
            "buffer" : 0,
            "byteLength" : 408,
            "byteOffset" : 3072
        },
        {
            "buffer" : 0,
            "byteLength" : 288,
            "byteOffset" : 3480
        },
        {
            "buffer" : 0,
            "byteLength" : 288,
            "byteOffset" : 3768
        },
        {
            "buffer" : 0,
            "byteLength" : 192,
            "byteOffset" : 4056
        },
        {
            "buffer" : 0,
            "byteLength" : 72,
            "byteOffset" : 4248
        },
        {
            "buffer" : 0,
            "byteLength" : 2208,
            "byteOffset" : 4320
        },
        {
            "buffer" : 0,
            "byteLength" : 2208,
            "byteOffset" : 6528
        },
        {
            "buffer" : 0,
            "byteLength" : 1472,
            "byteOffset" : 8736
        },
        {
            "buffer" : 0,
            "byteLength" : 1472,
            "byteOffset" : 10208
        },
        {
            "buffer" : 0,
            "byteLength" : 1472,
            "byteOffset" : 11680
        },
        {
            "buffer" : 0,
            "byteLength" : 1356,
            "byteOffset" : 13152
        },
        {
            "buffer" : 0,
            "byteLength" : 252,
            "byteOffset" : 14508
        },
        {
            "buffer" : 0,
            "byteLength" : 252,
            "byteOffset" : 14760
        },
        {
            "buffer" : 0,
            "byteLength" : 168,
            "byteOffset" : 15012
        },
        {
            "buffer" : 0,
            "byteLength" : 168,
            "byteOffset" : 15180
        },
        {
            "buffer" : 0,
            "byteLength" : 144,
            "byteOffset" : 15348
        },
        {
            "buffer" : 0,
            "byteLength" : 216,
            "byteOffset" : 15492
        },
        {
            "buffer" : 0,
            "byteLength" : 216,
            "byteOffset" : 15708
        },
        {
            "buffer" : 0,
            "byteLength" : 144,
            "byteOffset" : 15924
        },
        {
            "buffer" : 0,
            "byteLength" : 144,
            "byteOffset" : 16068
        },
        {
            "buffer" : 0,
            "byteLength" : 120,
            "byteOffset" : 16212
        },
        {
            "buffer" : 0,
            "byteLength" : 9384,
            "byteOffset" : 16332
        },
        {
            "buffer" : 0,
            "byteLength" : 9384,
            "byteOffset" : 25716
        },
        {
            "buffer" : 0,
            "byteLength" : 6256,
            "byteOffset" : 35100
        },
        {
            "buffer" : 0,
            "byteLength" : 6256,
            "byteOffset" : 41356
        },
        {
            "buffer" : 0,
            "byteLength" : 5424,
            "byteOffset" : 47612
        }
    ],
    "buffers" : [
        {
            "byteLength" : 53036,
            "uri" : "space.bin"
        }
    ]
}
