{
    "asset" : {
        "generator" : "Khronos glTF Blender I/O v1.3.48",
        "version" : "2.0"
    },
    "scene" : 0,
    "scenes" : [
        {
            "name" : "Scene",
            "nodes" : [
                0,
                1,
                2,
                3
            ]
        }
    ],
    "nodes" : [
        {
            "mesh" : 0,
            "name" : "Mesh_0",
            "rotation" : [
                -0.48639386892318726,
                -0.5134454965591431,
                0.4908556044101715,
                0.50877845287323
            ],
            "scale" : [
                18.457029342651367,
                18.457029342651367,
                18.457029342651367
            ],
            "translation" : [
                -3.689614772796631,
                -0.0054801031947135925,
                -0.10433857142925262
            ]
        },
        {
            "mesh" : 1,
            "name" : "Mesh_1",
            "rotation" : [
                -0.48639386892318726,
                -0.5134454965591431,
                0.4908556044101715,
                0.50877845287323
            ],
            "scale" : [
                18.457029342651367,
                18.457029342651367,
                18.457029342651367
            ],
            "translation" : [
                -3.689614772796631,
                -0.0054801031947135925,
                -0.10433857142925262
            ]
        },
        {
            "name" : "Light",
            "rotation" : [
                0.16907577216625214,
                0.7558802962303162,
                -0.27217137813568115,
                0.570947527885437
            ],
            "translation" : [
                4.076245307922363,
                5.903861999511719,
                -1.0054540634155273
            ]
        },
        {
            "name" : "Camera",
            "rotation" : [
                0.483536034822464,
                0.33687159419059753,
                -0.20870360732078552,
                0.7804827094078064
            ],
            "translation" : [
                7.358891487121582,
                4.958309173583984,
                6.925790786743164
            ]
        }
    ],
    "materials" : [
        {
            "alphaMode" : "BLEND",
            "doubleSided" : true,
            "emissiveFactor" : [
                0,
                0,
                0
            ],
            "name" : "newBody",
            "pbrMetallicRoughness" : {
                "baseColorTexture" : {
                    "index" : 0,
                    "texCoord" : 0
                },
                "metallicFactor" : 0,
                "roughnessFactor" : 0.5
            }
        }
    ],
    "meshes" : [
        {
            "name" : "Mesh_0",
            "primitives" : [
                {
                    "attributes" : {
                        "POSITION" : 0,
                        "NORMAL" : 1,
                        "TEXCOORD_0" : 2,
                        "TEXCOORD_1" : 3,
                        "TEXCOORD_2" : 4
                    },
                    "indices" : 5,
                    "material" : 0
                }
            ]
        },
        {
            "name" : "Mesh_1",
            "primitives" : [
                {
                    "attributes" : {
                        "POSITION" : 6,
                        "NORMAL" : 7,
                        "TEXCOORD_0" : 8,
                        "TEXCOORD_1" : 9,
                        "TEXCOORD_2" : 10
                    },
                    "indices" : 11,
                    "material" : 0
                }
            ]
        }
    ],
    "textures" : [
        {
            "source" : 0
        }
    ],
    "images" : [
        {
            "mimeType" : "image/png",
            "name" : "newBody_baseColor",
            "uri" : "texture/newBody_baseColor.png"
        }
    ],
    "accessors" : [
        {
            "bufferView" : 0,
            "componentType" : 5126,
            "count" : 10442,
            "max" : [
                0.026940980926156044,
                0.02169203758239746,
                0.0663185715675354
            ],
            "min" : [
                -0.0215756893157959,
                -0.03550850600004196,
                -0.5102165937423706
            ],
            "type" : "VEC3"
        },
        {
            "bufferView" : 1,
            "componentType" : 5126,
            "count" : 10442,
            "type" : "VEC3"
        },
        {
            "bufferView" : 2,
            "componentType" : 5126,
            "count" : 10442,
            "type" : "VEC2"
        },
        {
            "bufferView" : 3,
            "componentType" : 5126,
            "count" : 10442,
            "type" : "VEC2"
        },
        {
            "bufferView" : 4,
            "componentType" : 5126,
            "count" : 10442,
            "type" : "VEC2"
        },
        {
            "bufferView" : 5,
            "componentType" : 5123,
            "count" : 41676,
            "type" : "SCALAR"
        },
        {
            "bufferView" : 6,
            "componentType" : 5126,
            "count" : 130,
            "max" : [
                0.012028022669255733,
                0.0036007449962198734,
                0.05050336569547653
            ],
            "min" : [
                -0.012028022669255733,
                -0.005806262139230967,
                0.04124942794442177
            ],
            "type" : "VEC3"
        },
        {
            "bufferView" : 7,
            "componentType" : 5126,
            "count" : 130,
            "type" : "VEC3"
        },
        {
            "bufferView" : 8,
            "componentType" : 5126,
            "count" : 130,
            "type" : "VEC2"
        },
        {
            "bufferView" : 9,
            "componentType" : 5126,
            "count" : 130,
            "type" : "VEC2"
        },
        {
            "bufferView" : 10,
            "componentType" : 5126,
            "count" : 130,
            "type" : "VEC2"
        },
        {
            "bufferView" : 11,
            "componentType" : 5123,
            "count" : 672,
            "type" : "SCALAR"
        }
    ],
    "bufferViews" : [
        {
            "buffer" : 0,
            "byteLength" : 125304,
            "byteOffset" : 0
        },
        {
            "buffer" : 0,
            "byteLength" : 125304,
            "byteOffset" : 125304
        },
        {
            "buffer" : 0,
            "byteLength" : 83536,
            "byteOffset" : 250608
        },
        {
            "buffer" : 0,
            "byteLength" : 83536,
            "byteOffset" : 334144
        },
        {
            "buffer" : 0,
            "byteLength" : 83536,
            "byteOffset" : 417680
        },
        {
            "buffer" : 0,
            "byteLength" : 83352,
            "byteOffset" : 501216
        },
        {
            "buffer" : 0,
            "byteLength" : 1560,
            "byteOffset" : 584568
        },
        {
            "buffer" : 0,
            "byteLength" : 1560,
            "byteOffset" : 586128
        },
        {
            "buffer" : 0,
            "byteLength" : 1040,
            "byteOffset" : 587688
        },
        {
            "buffer" : 0,
            "byteLength" : 1040,
            "byteOffset" : 588728
        },
        {
            "buffer" : 0,
            "byteLength" : 1040,
            "byteOffset" : 589768
        },
        {
            "buffer" : 0,
            "byteLength" : 1344,
            "byteOffset" : 590808
        }
    ],
    "buffers" : [
        {
            "byteLength" : 592152,
            "uri" : "eel.bin"
        }
    ]
}
