{
    "asset" : {
        "generator" : "Khronos glTF Blender I/O v1.3.48",
        "version" : "2.0"
    },
    "scene" : 0,
    "scenes" : [
        {
            "name" : "Scene",
            "nodes" : [
                0,
                1,
                2,
                3,
                4,
                5
            ]
        }
    ],
    "nodes" : [
        {
            "name" : "Light.001",
            "rotation" : [
                0.16907575726509094,
                0.7558803558349609,
                -0.27217137813568115,
                0.570947527885437
            ],
            "translation" : [
                4.076245307922363,
                5.903861999511719,
                -1.0054539442062378
            ]
        },
        {
            "name" : "Camera.001",
            "rotation" : [
                0.483536034822464,
                0.33687159419059753,
                -0.20870360732078552,
                0.7804827094078064
            ],
            "translation" : [
                7.358891487121582,
                4.958309173583984,
                6.925790786743164
            ]
        },
        {
            "name" : "Camera.002",
            "rotation" : [
                0.483536034822464,
                0.3368716239929199,
                -0.20870371162891388,
                0.7804826498031616
            ],
            "translation" : [
                7.358891487121582,
                4.958309173583984,
                6.925790786743164
            ]
        },
        {
            "mesh" : 0,
            "name" : "texturedMesh",
            "rotation" : [
                0.9316267967224121,
                -0.18198634684085846,
                0.03430822491645813,
                0.3126906752586365
            ],
            "translation" : [
                -0.03088562563061714,
                0.0033590327948331833,
                -0.0790519192814827
            ]
        },
        {
            "name" : "Light",
            "rotation" : [
                0.16907575726509094,
                0.7558803558349609,
                -0.27217137813568115,
                0.570947527885437
            ],
            "translation" : [
                4.076245307922363,
                5.903861999511719,
                -1.0054539442062378
            ]
        },
        {
            "name" : "Camera",
            "rotation" : [
                0.483536034822464,
                0.33687159419059753,
                -0.20870360732078552,
                0.7804827094078064
            ],
            "translation" : [
                7.358891487121582,
                4.958309173583984,
                6.925790786743164
            ]
        }
    ],
    "materials" : [
        {
            "doubleSided" : true,
            "emissiveFactor" : [
                0,
                0,
                0
            ],
            "name" : "TextureAtlas_1001",
            "pbrMetallicRoughness" : {
                "baseColorTexture" : {
                    "index" : 0,
                    "texCoord" : 0
                },
                "metallicFactor" : 0,
                "roughnessFactor" : 1
            }
        },
        {
            "doubleSided" : true,
            "emissiveFactor" : [
                0,
                0,
                0
            ],
            "name" : "TextureAtlas_1002",
            "pbrMetallicRoughness" : {
                "baseColorTexture" : {
                    "index" : 1,
                    "texCoord" : 0
                },
                "metallicFactor" : 0,
                "roughnessFactor" : 1
            }
        },
        {
            "doubleSided" : true,
            "emissiveFactor" : [
                0,
                0,
                0
            ],
            "name" : "TextureAtlas_1003",
            "pbrMetallicRoughness" : {
                "baseColorTexture" : {
                    "index" : 2,
                    "texCoord" : 0
                },
                "metallicFactor" : 0,
                "roughnessFactor" : 1
            }
        },
        {
            "doubleSided" : true,
            "emissiveFactor" : [
                0,
                0,
                0
            ],
            "name" : "TextureAtlas_1004",
            "pbrMetallicRoughness" : {
                "baseColorTexture" : {
                    "index" : 3,
                    "texCoord" : 0
                },
                "metallicFactor" : 0,
                "roughnessFactor" : 1
            }
        }
    ],
    "meshes" : [
        {
            "name" : "texturedMesh.001",
            "primitives" : [
                {
                    "attributes" : {
                        "POSITION" : 0,
                        "NORMAL" : 1,
                        "TEXCOORD_0" : 2
                    },
                    "indices" : 3,
                    "material" : 0
                },
                {
                    "attributes" : {
                        "POSITION" : 4,
                        "NORMAL" : 5,
                        "TEXCOORD_0" : 6
                    },
                    "indices" : 7,
                    "material" : 1
                },
                {
                    "attributes" : {
                        "POSITION" : 8,
                        "NORMAL" : 9,
                        "TEXCOORD_0" : 10
                    },
                    "indices" : 11,
                    "material" : 2
                },
                {
                    "attributes" : {
                        "POSITION" : 12,
                        "NORMAL" : 13,
                        "TEXCOORD_0" : 14
                    },
                    "indices" : 15,
                    "material" : 3
                }
            ]
        }
    ],
    "textures" : [
        {
            "source" : 0
        },
        {
            "source" : 1
        },
        {
            "source" : 2
        },
        {
            "source" : 3
        }
    ],
    "images" : [
        {
            "mimeType" : "image/png",
            "name" : "texture_1001",
            "uri" : "texture/texture_1001.png"
        },
        {
            "mimeType" : "image/png",
            "name" : "texture_1002",
            "uri" : "texture/texture_1002.png"
        },
        {
            "mimeType" : "image/png",
            "name" : "texture_1003",
            "uri" : "texture/texture_1003.png"
        },
        {
            "mimeType" : "image/png",
            "name" : "texture_1004",
            "uri" : "texture/texture_1004.png"
        }
    ],
    "accessors" : [
        {
            "bufferView" : 0,
            "componentType" : 5126,
            "count" : 270371,
            "max" : [
                0.7609277367591858,
                0.3782460391521454,
                0.17830581963062286
            ],
            "min" : [
                -0.38275226950645447,
                -0.4058489501476288,
                -0.4731261730194092
            ],
            "type" : "VEC3"
        },
        {
            "bufferView" : 1,
            "componentType" : 5126,
            "count" : 270371,
            "type" : "VEC3"
        },
        {
            "bufferView" : 2,
            "componentType" : 5126,
            "count" : 270371,
            "type" : "VEC2"
        },
        {
            "bufferView" : 3,
            "componentType" : 5125,
            "count" : 293352,
            "type" : "SCALAR"
        },
        {
            "bufferView" : 4,
            "componentType" : 5126,
            "count" : 230692,
            "max" : [
                0.7609277367591858,
                0.3782460391521454,
                0.17946483194828033
            ],
            "min" : [
                -0.3853732645511627,
                -0.4058259427547455,
                -0.47323915362358093
            ],
            "type" : "VEC3"
        },
        {
            "bufferView" : 5,
            "componentType" : 5126,
            "count" : 230692,
            "type" : "VEC3"
        },
        {
            "bufferView" : 6,
            "componentType" : 5126,
            "count" : 230692,
            "type" : "VEC2"
        },
        {
            "bufferView" : 7,
            "componentType" : 5125,
            "count" : 249720,
            "type" : "SCALAR"
        },
        {
            "bufferView" : 8,
            "componentType" : 5126,
            "count" : 336779,
            "max" : [
                0.758972704410553,
                0.3538770377635956,
                0.18159683048725128
            ],
            "min" : [
                -0.3822672665119171,
                -0.25429394841194153,
                -0.47226816415786743
            ],
            "type" : "VEC3"
        },
        {
            "bufferView" : 9,
            "componentType" : 5126,
            "count" : 336779,
            "type" : "VEC3"
        },
        {
            "bufferView" : 10,
            "componentType" : 5126,
            "count" : 336779,
            "type" : "VEC2"
        },
        {
            "bufferView" : 11,
            "componentType" : 5125,
            "count" : 365367,
            "type" : "SCALAR"
        },
        {
            "bufferView" : 12,
            "componentType" : 5126,
            "count" : 120750,
            "max" : [
                0.7438367009162903,
                0.3692840039730072,
                0.17763681709766388
            ],
            "min" : [
                -0.3797113001346588,
                -0.40187695622444153,
                -0.4692961573600769
            ],
            "type" : "VEC3"
        },
        {
            "bufferView" : 13,
            "componentType" : 5126,
            "count" : 120750,
            "type" : "VEC3"
        },
        {
            "bufferView" : 14,
            "componentType" : 5126,
            "count" : 120750,
            "type" : "VEC2"
        },
        {
            "bufferView" : 15,
            "componentType" : 5125,
            "count" : 128997,
            "type" : "SCALAR"
        }
    ],
    "bufferViews" : [
        {
            "buffer" : 0,
            "byteLength" : 3244452,
            "byteOffset" : 0
        },
        {
            "buffer" : 0,
            "byteLength" : 3244452,
            "byteOffset" : 3244452
        },
        {
            "buffer" : 0,
            "byteLength" : 2162968,
            "byteOffset" : 6488904
        },
        {
            "buffer" : 0,
            "byteLength" : 1173408,
            "byteOffset" : 8651872
        },
        {
            "buffer" : 0,
            "byteLength" : 2768304,
            "byteOffset" : 9825280
        },
        {
            "buffer" : 0,
            "byteLength" : 2768304,
            "byteOffset" : 12593584
        },
        {
            "buffer" : 0,
            "byteLength" : 1845536,
            "byteOffset" : 15361888
        },
        {
            "buffer" : 0,
            "byteLength" : 998880,
            "byteOffset" : 17207424
        },
        {
            "buffer" : 0,
            "byteLength" : 4041348,
            "byteOffset" : 18206304
        },
        {
            "buffer" : 0,
            "byteLength" : 4041348,
            "byteOffset" : 22247652
        },
        {
            "buffer" : 0,
            "byteLength" : 2694232,
            "byteOffset" : 26289000
        },
        {
            "buffer" : 0,
            "byteLength" : 1461468,
            "byteOffset" : 28983232
        },
        {
            "buffer" : 0,
            "byteLength" : 1449000,
            "byteOffset" : 30444700
        },
        {
            "buffer" : 0,
            "byteLength" : 1449000,
            "byteOffset" : 31893700
        },
        {
            "buffer" : 0,
            "byteLength" : 966000,
            "byteOffset" : 33342700
        },
        {
            "buffer" : 0,
            "byteLength" : 515988,
            "byteOffset" : 34308700
        }
    ],
    "buffers" : [
        {
            "byteLength" : 34824688,
            "uri" : "pumpkin.bin"
        }
    ]
}
